<?xml version="1.0" encoding="UTF-8" standalone="no"?>
<svg
   xmlns:dc="http://purl.org/dc/elements/1.1/"
   xmlns:cc="http://creativecommons.org/ns#"
   xmlns:rdf="http://www.w3.org/1999/02/22-rdf-syntax-ns#"
   xmlns:svg="http://www.w3.org/2000/svg"
   xmlns="http://www.w3.org/2000/svg"
   xmlns:sodipodi="http://sodipodi.sourceforge.net/DTD/sodipodi-0.dtd"
   xmlns:inkscape="http://www.inkscape.org/namespaces/inkscape"
   inkscape:version="1.0 (4035a4fb49, 2020-05-01)"
   sodipodi:docname="coding_illustration.svg"
   width="737.10889"
   height="404.16089"
   data-name="Layer 1"
   inkscapeVersion="1.0 (4035a4fb49, 2020-05-01)"
   sodipodiDocname="coding_illustration.svg"
   version="1.1"
   viewBox="0 0 737.10886 404.1609"
   xmlnsCc="http://creativecommons.org/ns#"
   xmlnsDc="http://purl.org/dc/elements/1.1/"
   xmlnsRdf="http://www.w3.org/1999/02/22-rdf-syntax-ns#"
   xmlnsSvg="http://www.w3.org/2000/svg"
   id="svg187">
  <sodipodi:namedview
     showborder="false"
     fit-margin-bottom="0"
     fit-margin-right="0"
     fit-margin-left="0"
     fit-margin-top="0"
     inkscape:current-layer="svg187"
     inkscape:window-maximized="1"
     inkscape:window-y="-8"
     inkscape:window-x="-8"
     inkscape:cy="184.76861"
     inkscape:cx="349.65583"
     inkscape:zoom="0.81010673"
     showgrid="false"
     id="namedview99"
     inkscape:window-height="705"
     inkscape:window-width="1366"
     inkscape:pageshadow="2"
     inkscape:pageopacity="0"
     guidetolerance="10"
     gridtolerance="10"
     objecttolerance="10"
     borderopacity="1"
     bordercolor="#666666"
     pagecolor="#ffffff" />
  <metadata
     id="metadata193">
    <rdf:RDF>
      <cc:Work
         rdf:about="">
        <dc:format>image/svg+xml</dc:format>
        <dc:type
           rdf:resource="http://purl.org/dc/dcmitype/StillImage" />
        <dc:title></dc:title>
      </cc:Work>
    </rdf:RDF>
  </metadata>
  <defs
     id="defs191" />
  <g
     id="g1108">
    <path
       d="M 491.44025,332.71285 H 158.95574 a 11.148481,11.148481 0 0 1 -11.14848,-11.14848 q 180.79066,-21.01113 354.78506,0 a 11.148481,11.148481 0 0 1 -11.14849,11.14848 z"
       fill="#2f2e41"
       id="path6"
       style="stroke-width:0.447712" />
    <path
       d="m 502.58829,322.22296 -354.78506,-0.65581 41.11789,-69.18497 0.19672,-0.3279 V 99.576941 A 14.091741,14.091741 0 0 1 203.21093,85.483856 H 445.2128 a 14.091741,14.091741 0 0 1 14.09309,14.093085 V 253.10641 Z"
       fill="#3f3d56"
       id="path8"
       style="stroke-width:0.447712" />
    <path
       d="m 202.88974,95.317935 a 4.5957657,4.5957657 0 0 0 -4.59039,4.590393 V 238.9364 a 4.5957657,4.5957657 0 0 0 4.59039,4.59039 h 244.61204 a 4.5962134,4.5962134 0 0 0 4.59039,-4.59039 V 99.908328 a 4.5957657,4.5957657 0 0 0 -4.59039,-4.590393 z"
       fill="#0c0d16"
       id="path10"
       style="stroke-width:0.447712" />
    <path
       d="m 204.5015,261.88926 a 1.972799,1.972799 0 0 0 -1.7874,1.14507 l -12.6698,27.54325 a 1.9672922,1.9672922 0 0 0 1.78708,2.7897 h 266.43801 a 1.9671579,1.9671579 0 0 0 1.75924,-2.84732 L 446.257,262.97671 a 1.9573977,1.9573977 0 0 0 -1.75924,-1.08745 z"
       fill="#2f2e41"
       id="path12"
       style="stroke-width:0.447712" />
    <circle
       cx="324.21976"
       cy="90.070747"
       r="2.9510503"
       fill="#ffffff"
       id="circle14"
       style="stroke-width:0.447712" />
    <path
       d="m 298.02858,298.61061 a 1.9703814,1.9703814 0 0 0 -1.89946,1.4557 l -3.17809,11.80438 a 1.9672026,1.9672026 0 0 0 1.89947,2.47907 h 60.44114 a 1.966934,1.966934 0 0 0 1.8585,-2.61097 l -4.08586,-11.80438 a 1.9684115,1.9684115 0 0 0 -1.85913,-1.32375 z"
       fill="#2f2e41"
       id="path16"
       style="stroke-width:0.447712" />
    <polygon
       transform="matrix(0.4477122,0,0,0.4477122,147.82114,81.805981)"
       points="695.76,380.98 91.84,380.98 92.295,380.25 92.295,375.13 695.76,375.13 "
       fill="#2f2e41"
       id="polygon18" />
    <g
       fill="#e6e6e6"
       id="g26"
       transform="matrix(0.4477122,0,0,0.4477122,-416.20669,153.44441)">
      <path
         d="m 1767.8,-74.967 h -142.49 v 2.6026 h 142.49 a 26.451,26.451 0 0 1 0,52.902 h -215.61 a 26.451,26.451 0 0 1 0,-52.902 h 8.0574 v -2.6026 h -8.0574 a 29.0535,29.0535 0 0 0 0,58.107 h 215.61 a 29.0535,29.0535 0 1 0 0,-58.107 z"
         id="path20" />
      <path
         d="m 1767.8,14.822 h -142.49 v 2.6026 h 142.49 a 26.451,26.451 0 0 1 0,52.902 h -215.61 a 26.451,26.451 0 0 1 0,-52.902 h 8.0574 V 14.822 h -8.0574 a 29.0535,29.0535 0 0 0 0,58.107 h 215.61 a 29.0535,29.0535 0 1 0 0,-58.107 z"
         id="path22" />
      <path
         d="m 1767.8,104.61 h -142.49 v 2.6026 h 142.49 a 26.451,26.451 0 1 1 0,52.902 h -215.61 a 26.451,26.451 0 0 1 0,-52.902 h 8.0574 V 104.61 h -8.0574 a 29.0535,29.0535 0 0 0 0,58.107 h 215.61 a 29.0535,29.0535 0 1 0 0,-58.107 z"
         id="path24" />
    </g>
    <g
       fill="#3f3d56"
       id="g34"
       transform="matrix(0.4477122,0,0,0.4477122,-416.20669,153.44441)">
      <path
         d="m 1576.3,-81.842 a 7.7385,7.7385 0 0 0 0,15.475 h 33.945 a 7.738543,7.738543 0 1 0 0.2541,-15.475 q -0.127,-0.002 -0.2541,0 z"
         data-name="Path 40"
         id="path28" />
      <path
         d="m 1576.3,9.2476 a 7.7385,7.7385 0 0 0 0,15.475 h 33.945 a 7.738543,7.738543 0 0 0 0.2541,-15.475 q -0.127,-0.002 -0.2541,0 z"
         data-name="Path 40"
         id="path30" />
      <path
         d="m 1576.3,97.735 a 7.7385,7.7385 0 0 0 0,15.475 h 33.945 a 7.738543,7.738543 0 0 0 0.2541,-15.475 q -0.127,-0.002 -0.2541,0 z"
         data-name="Path 40"
         id="path32" />
    </g>
    <path
       id="ab3f55ca-45f9-4d6f-a8ad-e44fa73330dd"
       d="m 283.47794,129.4242 a 3.4646209,3.4646209 0 0 0 0,6.92835 h 86.85616 a 3.464642,3.464642 0 1 0 0.11377,-6.92835 q -0.0569,-8.9e-4 -0.11377,0 z"
       fill="#17b06b"
       data-name="Path 40"
       style="stroke-width:0.447712" />
    <path
       id="b755e68c-1f13-420d-a9db-7573ff270e8f"
       d="m 283.47794,169.62383 a 3.4646209,3.4646209 0 0 0 0,6.92835 h 86.85616 a 3.464642,3.464642 0 1 0 0.11377,-6.92835 q -0.0569,-8.9e-4 -0.11377,0 z"
       fill="#17b06b"
       data-name="Path 40"
       style="stroke-width:0.447712" />
    <path
       id="f0f56a0b-ed67-4282-9bfe-4d2fc6a8304e"
       d="m 283.47794,209.82481 a 3.4646209,3.4646209 0 0 0 0,6.92834 h 86.85616 a 3.4646401,3.4646401 0 1 0 0.11377,-6.92834 q -0.0569,-9e-4 -0.11377,0 z"
       fill="#e6e6e6"
       data-name="Path 40"
       style="stroke-width:0.447712" />
    <circle
       cx="251.24268"
       cy="132.61549"
       r="6.9373007"
       fill="#17b06b"
       id="circle39"
       style="stroke-width:0.447712" />
    <polygon
       transform="matrix(0.4477122,0,0,0.4477122,147.82114,81.805981)"
       points="229.83,114.75 237.05,107.13 239.46,109.42 229.58,119.85 225.06,114.04 227.69,112 "
       fill="#ffffff"
       id="polygon41" />
    <circle
       cx="251.24268"
       cy="172.81512"
       r="6.9373007"
       fill="#17b06b"
       id="circle43"
       style="stroke-width:0.447712" />
    <polygon
       transform="matrix(0.4477122,0,0,0.4477122,147.82114,81.805981)"
       points="229.83,204.54 237.05,196.92 239.46,199.21 229.58,209.64 225.06,203.83 227.69,201.79 "
       fill="#ffffff"
       id="polygon45" />
    <circle
       cx="251.24268"
       cy="213.01251"
       r="6.9373007"
       fill="#e6e6e6"
       id="circle47"
       style="stroke-width:0.447712" />
    <circle
       cx="403.28574"
       cy="132.61549"
       r="6.9373007"
       fill="#ff3c5c"
       id="circle49"
       style="stroke-width:0.447712" />
    <circle
       cx="403.28574"
       cy="172.81512"
       r="6.9373007"
       fill="#ff3c5c"
       id="circle51"
       style="stroke-width:0.447712" />
    <circle
       cx="403.28574"
       cy="213.01251"
       r="6.9373007"
       fill="#e6e6e6"
       id="circle53"
       style="stroke-width:0.447712" />
    <g
       fill="#ffffff"
       id="g69"
       transform="matrix(0.4477122,0,0,0.4477122,-416.20669,153.44441)">
      <polygon
         transform="translate(1259.8,-160.01)"
         points="229.83,294.33 237.05,286.71 239.46,288.99 229.58,299.43 225.06,293.62 227.69,291.58 "
         id="polygon55" />
      <rect
         transform="rotate(-45)"
         x="1326.1"
         y="1255.1"
         width="1.8239"
         height="12.254"
         id="rect57" />
      <rect
         transform="rotate(-45)"
         x="1321.2"
         y="1260.6"
         width="12.254"
         height="1.8239"
         id="rect59" />
      <rect
         transform="rotate(-45)"
         x="1262.6"
         y="1318.6"
         width="1.8239"
         height="12.254"
         id="rect61" />
      <rect
         transform="rotate(-45)"
         x="1257.7"
         y="1324.1"
         width="12.254"
         height="1.8239"
         id="rect63" />
      <rect
         transform="rotate(-45)"
         x="1199.1"
         y="1382.1"
         width="1.8239"
         height="12.254"
         id="rect65" />
      <rect
         transform="rotate(-45)"
         x="1194.2"
         y="1387.6"
         width="12.254"
         height="1.8239"
         id="rect67" />
    </g>
    <g
       id="g79"
       transform="matrix(0.4477122,0,0,0.4477122,-416.20669,153.44441)">
      <path
         d="m 1881,228.54 a 1.0717,1.0717 0 0 0 -1.0331,0.79175 l -1.7286,6.4204 a 1.07,1.07 0 0 0 1.0331,1.3484 h 32.874 a 1.0698,1.0698 0 0 0 1.0109,-1.4202 l -2.2224,-6.4204 a 1.0706,1.0706 0 0 0 -1.0112,-0.72 z"
         fill="#714cdf"
         id="path71" />
      <rect
         x="1994.3"
         y="-182.84"
         width="581.71997"
         height="377.97"
         fill="#0c0d16"
         stroke-width="2.9675"
         id="rect73" />
      <polygon
         transform="matrix(2.9675,0,0,2.9675,1688.9,-317.74)"
         points="178.68,205.58 228.34,205.58 216.92,158.28 186.13,158.28 "
         fill="#79759d"
         id="polygon75" />
      <rect
         x="2185.5"
         y="267.72"
         width="207.25"
         height="45.105999"
         fill="#3f3d56"
         stroke-width="2.9675"
         id="rect77" />
    </g>
    <circle
       cx="497.84253"
       cy="88.458984"
       r="4.5572624"
       fill="#ffffff"
       stroke-width="1.32859"
       id="circle81" />
    <g
       stroke-width="2.9675"
       id="g103"
       transform="matrix(0.4477122,0,0,0.4477122,-416.20669,153.44441)">
      <circle
         cx="2071.8999"
         cy="-145.14999"
         r="10.179"
         fill="#16a4de"
         id="circle83" />
      <circle
         cx="2100.5"
         cy="-145.14999"
         r="10.179"
         fill="#f97515"
         id="circle85" />
      <rect
         x="1994.3"
         y="122.16"
         width="581.71997"
         height="72.971001"
         fill="#3f3d56"
         id="rect87" />
      <circle
         cx="2291.5"
         cy="158.66"
         r="19.882"
         fill="#714cdf"
         id="circle89" />
      <rect
         x="2206.8"
         y="30.497"
         width="169.39"
         height="12.345"
         fill="#16a4de"
         id="rect91" />
      <rect
         x="2282.3"
         y="62.960999"
         width="169.39"
         height="12.345"
         fill="#f97515"
         id="rect93" />
      <rect
         x="2166"
         y="0.61387998"
         width="142.14"
         height="12.345"
         fill="#16a4de"
         id="rect95" />
      <rect
         x="2337.7"
         y="0.61387998"
         width="142.14"
         height="12.345"
         fill="#16a4de"
         id="rect97" />
      <rect
         x="2206.8"
         y="-33.839001"
         width="127.1"
         height="12.345"
         fill="#f97515"
         id="rect99" />
      <rect
         x="2367"
         y="-33.839001"
         width="127.1"
         height="12.345"
         fill="#f97515"
         id="rect101" />
    </g>
    <g
       fill="#ffffff"
       stroke-width="2.9675"
       id="g115"
       transform="matrix(0.4477122,0,0,0.4477122,-416.20669,153.44441)">
      <rect
         x="2113.3"
         y="30.497"
         width="63.713001"
         height="12.345"
         id="rect105" />
      <rect
         x="2176.8"
         y="62.960999"
         width="63.713001"
         height="12.345"
         id="rect107" />
      <rect
         x="2072.5"
         y="0.61387998"
         width="63.713001"
         height="12.345"
         id="rect109" />
      <rect
         x="2072.5"
         y="-93.427002"
         width="63.713001"
         height="12.345"
         id="rect111" />
      <rect
         x="2113.3"
         y="-62.505001"
         width="63.713001"
         height="12.345"
         id="rect113" />
    </g>
    <g
       stroke-width="2.9675"
       id="g123"
       transform="matrix(0.4477122,0,0,0.4477122,-416.20669,153.44441)">
      <rect
         x="2206.8"
         y="-62.505001"
         width="127.1"
         height="12.345"
         fill="#f97515"
         id="rect117" />
      <rect
         x="2367"
         y="-62.505001"
         width="127.1"
         height="12.345"
         fill="#f97515"
         id="rect119" />
      <rect
         x="2113.3"
         y="-33.839001"
         width="63.713001"
         height="12.345"
         fill="#ffffff"
         id="rect121" />
    </g>
    <g
       id="g131"
       transform="matrix(0.4477122,0,0,0.4477122,-416.20669,153.44441)">
      <rect
         x="2161.7"
         y="-93.427002"
         width="131.22"
         height="12.345"
         fill="#16a4de"
         stroke-width="2.9675"
         id="rect125" />
      <rect
         x="2320.3999"
         y="-93.427002"
         width="93.18"
         height="12.345"
         fill="#16a4de"
         stroke-width="2.9675"
         id="rect127" />
      <rect
         x="1291.4"
         y="-194.24001"
         width="178.57001"
         height="122.77"
         fill="#f97515"
         stroke-width="2.9727"
         id="rect129" />
    </g>
    <g
       fill="#ffffff"
       stroke-width="2.9727"
       id="g139"
       transform="matrix(0.4477122,0,0,0.4477122,-416.20669,153.44441)">
      <path
         d="m 1356.7,-108.74 a 4.1916,4.1916 0 0 1 -2.5566,-0.89182 l -26.755,-21.166 a 4.0132,4.0132 0 0 1 -1.5756,-3.2106 4.1024,4.1024 0 0 1 1.5458,-3.2403 l 26.755,-21.552 a 4.1436,4.1436 0 1 1 5.2023,6.4508 l -22.742,18.312 22.712,17.836 a 4.1321,4.1321 0 0 1 -2.5863,7.3724 z"
         id="path133" />
      <path
         d="m 1405.2,-108.74 a 4.1321,4.1321 0 0 1 -2.5566,-7.4616 l 22.682,-17.836 -22.712,-18.282 a 4.1343,4.1343 0 1 1 5.1726,-6.4508 l 26.755,21.552 a 3.9835,3.9835 0 0 1 1.6945,3.1808 4.0727,4.0727 0 0 1 -1.5458,3.2106 l -26.755,21.166 a 4.1916,4.1916 0 0 1 -2.7349,0.92155 z"
         id="path135" />
      <path
         d="m 1369.7,-108.74 a 3.9537,3.9537 0 0 1 -1.7242,-0.38646 4.1321,4.1321 0 0 1 -2.0512,-5.4698 l 19.501,-42.718 a 4.1618,4.1618 0 0 1 5.4996,-2.0215 4.1024,4.1024 0 0 1 2.0214,5.4698 l -19.501,42.718 a 4.1321,4.1321 0 0 1 -3.7456,2.4079 z"
         id="path137" />
    </g>
    <path
       d="m 285.53741,266.11566 c 0,0 18.31725,-3.81491 14.12353,13.85714 -4.19372,17.67205 9.81788,15.2737 7.09669,29.11652 -2.72093,13.84326 -21.22022,47.27841 -21.22022,47.27841 h -34.74067 l 17.67209,-65.11974 z"
       opacity="0.08"
       stroke-width="1.40255"
       id="path141" />
    <path
       d="m 271.47925,321.02756 c 0,0 23.26805,-5.73653 21.4866,-19.63531 -1.78122,-13.89923 -16.83039,-6.0871 -16.83039,-6.0871 0,0 3.9271,-18.93419 9.66342,-24.33405 5.73653,-5.39986 -6.45154,-14.62855 -15.7644,-5.70833 -9.31286,8.92022 -11.09431,1.76721 -18.61184,11.07998 -7.51754,9.31277 -7.51754,35.73684 -7.51754,35.73684 z"
       fill="#f4a28c"
       stroke-width="1.40255"
       id="path143" />
    <polygon
       transform="matrix(1.402548,0,0,1.402548,20.688783,55.413347)"
       points="164.5,246.06 133.35,233.8 159.14,182.95 178.8,189.38 "
       fill="#68e1fd"
       id="polygon145" />
    <path
       d="m 371.09521,267.08272 c 0,0 16.04108,-7.39173 22.90854,6.65748 6.86746,14.04921 10.93,17.67926 10.93,17.67926 v 44.23128 l -35.1754,-26.43382 z"
       opacity="0.08"
       stroke-width="1.31054"
       id="path147" />
    <path
       d="m 367.3792,324.64956 c 0,0 -23.26805,-5.72221 -21.48705,-19.63532 1.781,-13.9131 16.8304,-6.08709 16.8304,-6.08709 0,0 -3.94112,-18.94808 -9.66342,-24.33406 -5.72221,-5.38553 6.43765,-14.64242 15.75051,-5.70833 9.31286,8.9341 11.10819,1.76721 18.62573,11.0661 7.51753,9.29899 7.51753,35.75072 7.51753,35.75072 z"
       fill="#f4a28c"
       stroke-width="1.40255"
       id="path149" />
    <polygon
       transform="matrix(1.402548,0,0,1.402548,20.021692,51.518251)"
       points="293.1,239.17 267.31,188.32 247.65,194.75 261.95,251.43 "
       fill="#68e1fd"
       id="polygon151" />
    <rect
       x="4.6720947e-06"
       y="2.7752869e-06"
       width="158.54384"
       height="265.30978"
       fill="#0c0d16"
       stroke-width="2.33464"
       id="rect153" />
    <polyline
       transform="matrix(2.33464,0,0,2.33464,-146.61231,-94.740371)"
       points="83.74 75.36 108.66 75.36 108.66 116.72"
       fill="none"
       stroke="#ffffff"
       stroke-miterlimit="10"
       id="polyline155" />
    <g
       stroke-width="5.2146"
       id="g163"
       transform="matrix(0.4477122,0,0,0.4477122,-416.20669,153.44441)">
      <rect
         x="982.87"
         y="-291.06"
         width="171.77"
         height="27.481001"
         fill="#f97515"
         id="rect157" />
      <rect
         x="993.56"
         y="-189.48"
         width="90.526001"
         height="56.213001"
         fill="#16a4de"
         id="rect159" />
      <line
         x1="1038.8"
         x2="1167.3"
         y1="54.305"
         y2="54.305"
         fill="none"
         stroke="#ffffff"
         stroke-miterlimit="10"
         id="line161" />
    </g>
    <g
       fill="#16a4de"
       stroke-width="5.2146"
       id="g171"
       transform="matrix(0.4477122,0,0,0.4477122,-416.20669,153.44441)">
      <rect
         x="1123.5"
         y="-78.980003"
         width="90.526001"
         height="56.213001"
         id="rect165" />
      <rect
         x="993.56"
         y="26.198"
         width="90.526001"
         height="56.213001"
         id="rect167" />
      <rect
         x="1122"
         y="26.198"
         width="90.526001"
         height="56.213001"
         id="rect169" />
    </g>
    <rect
       x="28.622242"
       y="224.00833"
       width="98.053444"
       height="17.883417"
       fill="#ffffff"
       opacity="0.1"
       stroke-width="2.33464"
       id="rect173" />
    <g
       fill="#ff3c5c"
       stroke-width="4.3675"
       id="g181"
       transform="matrix(0.4477122,0,0,0.4477122,-416.20669,153.44441)">
      <path
         d="m 1167.9,247.83 c 0,0 -64.552,-17.47 -78.615,-77.741 0,0 100.06,-20.221 102.9,82.982 z"
         opacity="0.58"
         id="path175" />
      <path
         d="m 1175.8,241.41 c 0,0 -45.072,-71.321 -5.372,-138.14 0,0 76.082,48.348 42.277,138.19 z"
         opacity="0.73"
         id="path177" />
      <path
         d="m 1187.5,241.49 c 0,0 23.846,-75.339 96.085,-89.621 0,0 13.496,48.916 -46.688,89.796 z"
         id="path179" />
    </g>
    <polygon
       transform="matrix(1.955383,0,0,1.955383,-42.295369,-152.29377)"
       points="94.6,211.36 69.95,211.26 72.94,231.76 91.82,231.84 "
       fill="#32334a"
       id="polygon183" />
  </g>
</svg>
